#define Untitled_width 19
#define Untitled_height 19
static unsigned char Untitled_bits[] = {
   0xc0, 0x0f, 0x00, 0xe0, 0x78, 0x00, 0x18, 0xc0, 0x00, 0x0c, 0x80, 0x01,
   0x06, 0x00, 0x03, 0x02, 0x00, 0x02, 0x02, 0x00, 0x06, 0x01, 0x00, 0x04,
   0x01, 0x00, 0x04, 0x01, 0x00, 0x04, 0x01, 0x00, 0x04, 0x01, 0x00, 0x04,
   0x03, 0x00, 0x06, 0x02, 0x00, 0x02, 0x06, 0x00, 0x03, 0x0c, 0x80, 0x01,
   0x18, 0xc0, 0x00, 0xf0, 0x38, 0x00, 0x80, 0x0f, 0x00 };
