#define squareBrushCursorMask_width 32
#define squareBrushCursorMask_height 32
static unsigned char squareBrushCursorMask_bits[] = {
   0xff, 0xff, 0xff, 0xff, 0xff, 0xff, 0xff, 0xff, 0xff, 0xff, 0xff, 0xff,
   0x07, 0x00, 0x00, 0xe0, 0x07, 0x00, 0x00, 0xe0, 0x07, 0xc0, 0x03, 0xe0,
   0x07, 0xe0, 0x07, 0xe0, 0x07, 0xe0, 0x07, 0xe0, 0x07, 0xe0, 0x07, 0xe0,
   0x07, 0xe0, 0x07, 0xe0, 0x07, 0xe0, 0x07, 0xe0, 0x07, 0xe0, 0x07, 0xe0,
   0x07, 0xe0, 0x07, 0xe0, 0x07, 0xf0, 0x0f, 0xe0, 0x07, 0xfc, 0x3f, 0xe0,
   0x07, 0xfe, 0x7f, 0xe0, 0x07, 0xfe, 0x7f, 0xe0, 0x07, 0xfe, 0x7f, 0xe0,
   0x07, 0xfe, 0x7f, 0xe0, 0x07, 0xfe, 0x7f, 0xe0, 0x07, 0xfe, 0x7f, 0xe0,
   0x07, 0xfe, 0x7f, 0xe0, 0x07, 0xfe, 0x7f, 0xe0, 0x07, 0xff, 0x7f, 0xe0,
   0x07, 0xff, 0x7f, 0xe0, 0x07, 0xff, 0x3f, 0xe0, 0x07, 0x00, 0x00, 0xe0,
   0x07, 0x00, 0x00, 0xe0, 0x07, 0x00, 0x00, 0xe0, 0xff, 0xff, 0xff, 0xff,
   0xff, 0xff, 0xff, 0xff, 0xff, 0xff, 0xff, 0xff };
