#define squareBrushCursor_width 32
#define squareBrushCursor_height 32
static unsigned char squareBrushCursor_bits[] = {
   0x00, 0x00, 0x00, 0x00, 0xfe, 0xff, 0xff, 0x7f, 0x02, 0x00, 0x00, 0x40,
   0x02, 0x00, 0x00, 0x40, 0x02, 0x00, 0x00, 0x40, 0x02, 0x00, 0x00, 0x40,
   0x02, 0x80, 0x01, 0x40, 0x02, 0x40, 0x03, 0x40, 0x02, 0x40, 0x03, 0x40,
   0x02, 0x40, 0x03, 0x40, 0x02, 0x40, 0x03, 0x40, 0x02, 0x40, 0x03, 0x40,
   0x02, 0x40, 0x03, 0x40, 0x02, 0x40, 0x03, 0x40, 0x02, 0x60, 0x06, 0x40,
   0x02, 0x18, 0x18, 0x40, 0x02, 0x04, 0x20, 0x40, 0x02, 0x04, 0x20, 0x40,
   0x02, 0xfc, 0x3f, 0x40, 0x02, 0x04, 0x20, 0x40, 0x02, 0x04, 0x20, 0x40,
   0x02, 0x54, 0x35, 0x40, 0x02, 0x54, 0x35, 0x40, 0x02, 0x54, 0x35, 0x40,
   0x02, 0xfe, 0x1f, 0x40, 0x02, 0x00, 0x00, 0x40, 0x02, 0x00, 0x00, 0x40,
   0x02, 0x00, 0x00, 0x40, 0x02, 0x00, 0x00, 0x40, 0x02, 0x00, 0x00, 0x40,
   0xfe, 0xff, 0xff, 0x7f, 0x00, 0x00, 0x00, 0x00 };
