<?xml version="1.0" encoding="UTF-8" standalone="no"?>
<!-- Created with Inkscape (http://www.inkscape.org/) -->

<svg
   xmlns:dc="http://purl.org/dc/elements/1.1/"
   xmlns:cc="http://creativecommons.org/ns#"
   xmlns:rdf="http://www.w3.org/1999/02/22-rdf-syntax-ns#"
   xmlns:svg="http://www.w3.org/2000/svg"
   xmlns="http://www.w3.org/2000/svg"
   xmlns:sodipodi="http://sodipodi.sourceforge.net/DTD/sodipodi-0.dtd"
   xmlns:inkscape="http://www.inkscape.org/namespaces/inkscape"
   width="558.0708"
   height="392.03812"
   id="svg2"
   version="1.1"
   inkscape:version="0.47pre4 r22446"
   sodipodi:docname="twosets_nonconvex.svg">
  <defs
     id="defs4">
    <marker
       inkscape:stockid="Arrow1Lstart"
       orient="auto"
       refY="0"
       refX="0"
       id="Arrow1Lstart"
       style="overflow:visible">
      <path
         id="path3625"
         d="M 0,0 5,-5 -12.5,0 5,5 0,0 z"
         style="fill-rule:evenodd;stroke:#000000;stroke-width:1pt;marker-start:none"
         transform="matrix(0.8,0,0,0.8,10,0)" />
    </marker>
    <marker
       inkscape:stockid="Arrow2Lstart"
       orient="auto"
       refY="0"
       refX="0"
       id="Arrow2Lstart"
       style="overflow:visible">
      <path
         id="path3643"
         style="font-size:12px;fill-rule:evenodd;stroke-width:0.625;stroke-linejoin:round"
         d="M 8.7185878,4.0337352 -2.2072895,0.01601326 8.7185884,-4.0017078 c -1.7454984,2.3720609 -1.7354408,5.6174519 -6e-7,8.035443 z"
         transform="matrix(1.1,0,0,1.1,1.1,0)" />
    </marker>
    <marker
       inkscape:stockid="Arrow1Lend"
       orient="auto"
       refY="0"
       refX="0"
       id="Arrow1Lend"
       style="overflow:visible">
      <path
         id="path3628"
         d="M 0,0 5,-5 -12.5,0 5,5 0,0 z"
         style="fill-rule:evenodd;stroke:#000000;stroke-width:1pt;marker-start:none"
         transform="matrix(-0.8,0,0,-0.8,-10,0)" />
    </marker>
    <inkscape:perspective
       sodipodi:type="inkscape:persp3d"
       inkscape:vp_x="0 : 526.18109 : 1"
       inkscape:vp_y="0 : 1000 : 0"
       inkscape:vp_z="744.09448 : 526.18109 : 1"
       inkscape:persp3d-origin="372.04724 : 350.78739 : 1"
       id="perspective10" />
    <inkscape:perspective
       id="perspective2826"
       inkscape:persp3d-origin="0.5 : 0.33333333 : 1"
       inkscape:vp_z="1 : 0.5 : 1"
       inkscape:vp_y="0 : 1000 : 0"
       inkscape:vp_x="0 : 0.5 : 1"
       sodipodi:type="inkscape:persp3d" />
    <inkscape:perspective
       id="perspective6225"
       inkscape:persp3d-origin="0.5 : 0.33333333 : 1"
       inkscape:vp_z="1 : 0.5 : 1"
       inkscape:vp_y="0 : 1000 : 0"
       inkscape:vp_x="0 : 0.5 : 1"
       sodipodi:type="inkscape:persp3d" />
    <inkscape:perspective
       id="perspective6225-2"
       inkscape:persp3d-origin="0.5 : 0.33333333 : 1"
       inkscape:vp_z="1 : 0.5 : 1"
       inkscape:vp_y="0 : 1000 : 0"
       inkscape:vp_x="0 : 0.5 : 1"
       sodipodi:type="inkscape:persp3d" />
    <inkscape:perspective
       id="perspective6272"
       inkscape:persp3d-origin="0.5 : 0.33333333 : 1"
       inkscape:vp_z="1 : 0.5 : 1"
       inkscape:vp_y="0 : 1000 : 0"
       inkscape:vp_x="0 : 0.5 : 1"
       sodipodi:type="inkscape:persp3d" />
    <inkscape:perspective
       id="perspective6272-4"
       inkscape:persp3d-origin="0.5 : 0.33333333 : 1"
       inkscape:vp_z="1 : 0.5 : 1"
       inkscape:vp_y="0 : 1000 : 0"
       inkscape:vp_x="0 : 0.5 : 1"
       sodipodi:type="inkscape:persp3d" />
    <inkscape:perspective
       id="perspective6272-9"
       inkscape:persp3d-origin="0.5 : 0.33333333 : 1"
       inkscape:vp_z="1 : 0.5 : 1"
       inkscape:vp_y="0 : 1000 : 0"
       inkscape:vp_x="0 : 0.5 : 1"
       sodipodi:type="inkscape:persp3d" />
    <inkscape:perspective
       id="perspective6272-3"
       inkscape:persp3d-origin="0.5 : 0.33333333 : 1"
       inkscape:vp_z="1 : 0.5 : 1"
       inkscape:vp_y="0 : 1000 : 0"
       inkscape:vp_x="0 : 0.5 : 1"
       sodipodi:type="inkscape:persp3d" />
    <inkscape:perspective
       id="perspective6272-0"
       inkscape:persp3d-origin="0.5 : 0.33333333 : 1"
       inkscape:vp_z="1 : 0.5 : 1"
       inkscape:vp_y="0 : 1000 : 0"
       inkscape:vp_x="0 : 0.5 : 1"
       sodipodi:type="inkscape:persp3d" />
  </defs>
  <sodipodi:namedview
     id="base"
     pagecolor="#ffffff"
     bordercolor="#666666"
     borderopacity="1.0"
     inkscape:pageopacity="0.0"
     inkscape:pageshadow="2"
     inkscape:zoom="1.4"
     inkscape:cx="253.1353"
     inkscape:cy="151.96908"
     inkscape:document-units="px"
     inkscape:current-layer="layer1"
     showgrid="false"
     inkscape:window-width="1920"
     inkscape:window-height="1142"
     inkscape:window-x="-4"
     inkscape:window-y="-3"
     inkscape:window-maximized="1" />
  <metadata
     id="metadata7">
    <rdf:RDF>
      <cc:Work
         rdf:about="">
        <dc:format>image/svg+xml</dc:format>
        <dc:type
           rdf:resource="http://purl.org/dc/dcmitype/StillImage" />
        <dc:title></dc:title>
      </cc:Work>
    </rdf:RDF>
  </metadata>
  <g
     inkscape:label="Layer 1"
     inkscape:groupmode="layer"
     id="layer1"
     transform="translate(-38.093167,-20.378817)">
    <path
       style="fill:#aa0000;stroke:#000000;stroke-width:1px;stroke-linecap:butt;stroke-linejoin:miter;stroke-opacity:1"
       d="m 112.14285,128.79075 c 95.97325,-48.018523 205.90898,-43.040213 207.12418,15.67147 0.60814,29.38202 -32.25972,31.37048 -26.40989,59.32854 4.7567,22.73364 31.53529,24.67476 49.26551,44.16972 31.59912,34.74427 -57.16005,150.1516 -108.55122,160.83028 -55,11.42857 -162.857144,-5.71429 -186.428573,-97.85714 C 26.227066,229.17189 42.132759,172.10516 112.14285,128.79075 z"
       id="path2816"
       sodipodi:nodetypes="csssssc" />
    <path
       style="fill:#225500;stroke:#000000;stroke-width:1px;stroke-linecap:butt;stroke-linejoin:miter;stroke-opacity:1"
       d="m 468.0574,23.165123 c 37.41744,7.68129 118.87843,63.70265 127.14285,131.428577 7.82979,64.16414 -85.71428,140 -112.85714,140 -94.29654,0 -168.47099,-77.22089 -162.85714,-161.42857 C 323.77168,68.879413 387.09623,8.2372628 468.0574,23.165123 z"
       id="path2816-6"
       sodipodi:nodetypes="csssc" />
    <path
       style="fill:none;stroke:#000000;stroke-width:1;stroke-linecap:butt;stroke-linejoin:miter;stroke-miterlimit:4;stroke-opacity:1;stroke-dasharray:none;marker-start:none;marker-mid:none;marker-end:none"
       d="m 296.09681,365.19066 96.85421,-94.96773 -45.61126,-0.6066 21.28604,-20.14102 -22.98946,4.94923 14.50724,-11.96083 -14.50108,11.21936"
       id="path2848"
       sodipodi:nodetypes="ccccccc" />
    <path
       sodipodi:type="arc"
       style="fill:#ffcc00;stroke-width:1;stroke-linecap:butt;stroke-linejoin:miter;stroke-miterlimit:4;stroke-dasharray:none"
       id="path6126"
       sodipodi:cx="312.5"
       sodipodi:cy="378.07648"
       sodipodi:rx="6.0714288"
       sodipodi:ry="6.0714288"
       d="m 318.57143,378.07648 c 0,3.35315 -2.71827,6.07143 -6.07143,6.07143 -3.35316,0 -6.07143,-2.71828 -6.07143,-6.07143 0,-3.35316 2.71827,-6.07143 6.07143,-6.07143 3.35316,0 6.07143,2.71827 6.07143,6.07143 z"
       transform="matrix(0.76470589,0,0,0.76470589,55.672261,76.816307)" />
    <path
       sodipodi:type="arc"
       style="fill:#ffcc00;stroke-width:1;stroke-linecap:butt;stroke-linejoin:miter;stroke-miterlimit:4;stroke-dasharray:none"
       id="path6126-3"
       sodipodi:cx="312.5"
       sodipodi:cy="378.07648"
       sodipodi:rx="6.0714288"
       sodipodi:ry="6.0714288"
       d="m 318.57143,378.07648 c 0,3.35315 -2.71827,6.07143 -6.07143,6.07143 -3.35316,0 -6.07143,-2.71828 -6.07143,-6.07143 0,-3.35316 2.71827,-6.07143 6.07143,-6.07143 3.35316,0 6.07143,2.71827 6.07143,6.07143 z"
       transform="matrix(0.76470589,0,0,0.76470589,154.60084,-19.61227)" />
    <path
       sodipodi:type="arc"
       style="fill:#ffcc00;stroke-width:1;stroke-linecap:butt;stroke-linejoin:miter;stroke-miterlimit:4;stroke-dasharray:none"
       id="path6126-1"
       sodipodi:cx="312.5"
       sodipodi:cy="378.07648"
       sodipodi:rx="6.0714288"
       sodipodi:ry="6.0714288"
       d="m 318.57143,378.07648 c 0,3.35315 -2.71827,6.07143 -6.07143,6.07143 -3.35316,0 -6.07143,-2.71828 -6.07143,-6.07143 0,-3.35316 2.71827,-6.07143 6.07143,-6.07143 3.35316,0 6.07143,2.71827 6.07143,6.07143 z"
       transform="matrix(0.76470589,0,0,0.76470589,108.17227,-19.61227)" />
    <flowRoot
       xml:space="preserve"
       id="flowRoot6248"
       style="font-size:40px;font-style:normal;font-weight:normal;fill:#f2f2f2;fill-opacity:1;stroke:none;font-family:Bitstream Vera Sans"
       transform="translate(2.1428571,12.857143)"><flowRegion
         id="flowRegion6250"><rect
           id="rect6252"
           width="229.28571"
           height="55.714283"
           x="67.857147"
           y="233.07646"
           style="fill:#f2f2f2" /></flowRegion><flowPara
         id="flowPara6254">Amplitudes</flowPara></flowRoot>    <flowRoot
       xml:space="preserve"
       id="flowRoot6256"
       style="font-size:40px;font-style:normal;font-weight:normal;fill:#f2f2f2;fill-opacity:1;stroke:none;font-family:Bitstream Vera Sans"
       transform="translate(2.1428571,5)"><flowRegion
         id="flowRegion6258"><rect
           id="rect6260"
           width="165"
           height="62.142857"
           x="375.71429"
           y="120.93361"
           style="fill:#f2f2f2" /></flowRegion><flowPara
         id="flowPara6262">Support</flowPara></flowRoot>    <path
       sodipodi:type="arc"
       style="fill:#ffcc00;stroke-width:1;stroke-linecap:butt;stroke-linejoin:miter;stroke-miterlimit:4;stroke-dasharray:none"
       id="path6126-1-5"
       sodipodi:cx="312.5"
       sodipodi:cy="378.07648"
       sodipodi:rx="6.0714288"
       sodipodi:ry="6.0714288"
       d="m 318.57143,378.07648 c 0,3.35315 -2.71827,6.07143 -6.07143,6.07143 -3.35316,0 -6.07143,-2.71828 -6.07143,-6.07143 0,-3.35316 2.71827,-6.07143 6.07143,-6.07143 3.35316,0 6.07143,2.71827 6.07143,6.07143 z"
       transform="matrix(0.76470589,0,0,0.76470589,128.88655,-39.61227)" />
    <path
       sodipodi:type="arc"
       style="fill:#ffcc00;stroke-width:1;stroke-linecap:butt;stroke-linejoin:miter;stroke-miterlimit:4;stroke-dasharray:none"
       id="path6126-1-4"
       sodipodi:cx="312.5"
       sodipodi:cy="378.07648"
       sodipodi:rx="6.0714288"
       sodipodi:ry="6.0714288"
       d="m 318.57143,378.07648 c 0,3.35315 -2.71827,6.07143 -6.07143,6.07143 -3.35316,0 -6.07143,-2.71828 -6.07143,-6.07143 0,-3.35316 2.71827,-6.07143 6.07143,-6.07143 3.35316,0 6.07143,2.71827 6.07143,6.07143 z"
       transform="matrix(0.76470589,0,0,0.76470589,106.02941,-35.326556)" />
    <path
       sodipodi:type="arc"
       style="fill:#ffcc00;stroke-width:1;stroke-linecap:butt;stroke-linejoin:miter;stroke-miterlimit:4;stroke-dasharray:none"
       id="path6126-1-9"
       sodipodi:cx="312.5"
       sodipodi:cy="378.07648"
       sodipodi:rx="6.0714288"
       sodipodi:ry="6.0714288"
       d="m 318.57143,378.07648 c 0,3.35315 -2.71827,6.07143 -6.07143,6.07143 -3.35316,0 -6.07143,-2.71828 -6.07143,-6.07143 0,-3.35316 2.71827,-6.07143 6.07143,-6.07143 3.35316,0 6.07143,2.71827 6.07143,6.07143 z"
       transform="matrix(0.76470589,0,0,0.76470589,121.02941,-47.469412)" />
  </g>
</svg>
