<?xml version="1.0" encoding="UTF-8" standalone="no"?>
<!-- Created with Inkscape (http://www.inkscape.org/) -->

<svg
   xmlns:dc="http://purl.org/dc/elements/1.1/"
   xmlns:cc="http://creativecommons.org/ns#"
   xmlns:rdf="http://www.w3.org/1999/02/22-rdf-syntax-ns#"
   xmlns:svg="http://www.w3.org/2000/svg"
   xmlns="http://www.w3.org/2000/svg"
   xmlns:xlink="http://www.w3.org/1999/xlink"
   xmlns:sodipodi="http://sodipodi.sourceforge.net/DTD/sodipodi-0.dtd"
   xmlns:inkscape="http://www.inkscape.org/namespaces/inkscape"
   id="svg3157"
   version="1.1"
   inkscape:version="0.47 r22583"
   width="1877"
   height="426"
   sodipodi:docname="Hawk.svg">
  <metadata
     id="metadata3163">
    <rdf:RDF>
      <cc:Work
         rdf:about="">
        <dc:format>image/svg+xml</dc:format>
        <dc:type
           rdf:resource="http://purl.org/dc/dcmitype/StillImage" />
        <dc:title></dc:title>
      </cc:Work>
    </rdf:RDF>
  </metadata>
  <defs
     id="defs3161">
    <linearGradient
       id="linearGradient4036">
      <stop
         id="stop4038"
         offset="0"
         style="stop-color:#ffffff;stop-opacity:1" />
      <stop
         id="stop4042"
         offset="1"
         style="stop-color:#67d2ff;stop-opacity:1;" />
    </linearGradient>
    <linearGradient
       id="linearGradient3989">
      <stop
         id="stop3991"
         offset="0"
         style="stop-color:#ffffff;stop-opacity:1;" />
      <stop
         id="stop3993"
         offset="1"
         style="stop-color:#ecfaff;stop-opacity:0;" />
    </linearGradient>
    <linearGradient
       id="linearGradient3967">
      <stop
         style="stop-color:#f5f9fe;stop-opacity:1;"
         offset="0"
         id="stop3969" />
      <stop
         style="stop-color:#006af4;stop-opacity:1;"
         offset="1"
         id="stop3971" />
    </linearGradient>
    <linearGradient
       id="linearGradient3957">
      <stop
         style="stop-color:#0d546c;stop-opacity:1;"
         offset="0"
         id="stop3959" />
      <stop
         id="stop4003"
         offset="0.5"
         style="stop-color:#0eb7f0;stop-opacity:1;" />
      <stop
         style="stop-color:#ecfaff;stop-opacity:1;"
         offset="1"
         id="stop3961" />
    </linearGradient>
    <linearGradient
       id="linearGradient3949">
      <stop
         style="stop-color:#3465a4;stop-opacity:1;"
         offset="0"
         id="stop3951" />
      <stop
         style="stop-color:#3465a4;stop-opacity:0;"
         offset="1"
         id="stop3953" />
    </linearGradient>
    <inkscape:perspective
       sodipodi:type="inkscape:persp3d"
       inkscape:vp_x="0 : 0.5 : 1"
       inkscape:vp_y="0 : 1000 : 0"
       inkscape:vp_z="1 : 0.5 : 1"
       inkscape:persp3d-origin="0.5 : 0.33333333 : 1"
       id="perspective3165" />
    <clipPath
       clipPathUnits="userSpaceOnUse"
       id="clipPath3171">
      <rect
         style="fill:#73d216;fill-opacity:1;stroke:none"
         id="rect3173"
         width="759.15771"
         height="504.94434"
         x="-17.411875"
         y="-51.085342" />
    </clipPath>
    <linearGradient
       inkscape:collect="always"
       xlink:href="#linearGradient3957"
       id="linearGradient3963"
       x1="807.91095"
       y1="676.73096"
       x2="684.77966"
       y2="-96.356232"
       gradientUnits="userSpaceOnUse" />
    <linearGradient
       inkscape:collect="always"
       xlink:href="#linearGradient3989"
       id="linearGradient3997"
       gradientUnits="userSpaceOnUse"
       x1="527.57977"
       y1="-275.99722"
       x2="527.57977"
       y2="-385.89331" />
  </defs>
  <sodipodi:namedview
     pagecolor="#ffffff"
     bordercolor="#666666"
     borderopacity="1"
     objecttolerance="10"
     gridtolerance="10"
     guidetolerance="10"
     inkscape:pageopacity="0"
     inkscape:pageshadow="2"
     inkscape:window-width="1164"
     inkscape:window-height="924"
     id="namedview3159"
     showgrid="false"
     inkscape:zoom="0.10152652"
     inkscape:cx="809.30193"
     inkscape:cy="322.40503"
     inkscape:window-x="401"
     inkscape:window-y="236"
     inkscape:window-maximized="0"
     inkscape:current-layer="svg3157" />
  <path
     sodipodi:type="arc"
     style="opacity:0.93000004;fill:url(#linearGradient3963);fill-opacity:1;stroke:none"
     id="path3175"
     sodipodi:cx="807.91095"
     sodipodi:cy="290.18738"
     sodipodi:rx="386.54361"
     sodipodi:ry="386.54361"
     d="m 1194.4546,290.18738 a 386.54361,386.54361 0 1 1 -773.08726,0 386.54361,386.54361 0 1 1 773.08726,0 z"
     transform="matrix(1.1126127,0,0,1.1126127,26.19619,-185.05632)"
     inkscape:export-filename="/Users/filipe/Desktop/path3995.png"
     inkscape:export-xdpi="300"
     inkscape:export-ydpi="300" />
  <path
     style="fill:#ffffff;fill-opacity:1"
     d="m 1082.1863,374.29121 c -2.0122,-2.01218 -3.9051,-4.98761 -4.2065,-6.61207 -4.8768,-26.28332 -6.3338,-40.35148 -6.1589,-59.46255 0.2982,-32.56023 5.8686,-97.91278 10.5862,-124.19563 l 1.449,-8.07272 0.8533,6.83076 c 0.4695,3.75692 1.2121,36.17198 1.6504,72.03347 0.4382,35.86149 1.4478,74.70368 2.2436,86.31597 2.1333,31.13081 2.0574,35.88033 -0.5814,36.3959 -1.1975,0.23396 -3.8235,-1.22095 -5.8357,-3.23313 z m -194.5757,0.42764 c -0.38103,-0.99294 0.45258,-4.86661 1.85247,-8.60814 1.39988,-3.74153 3.1158,-11.35306 3.81315,-16.91451 0.69735,-5.56144 1.88363,-12.39835 2.63618,-15.19311 1.91989,-7.12994 33.72663,-70.56849 40.45885,-80.6952 5.26967,-7.92671 10.9829,-13.3989 13.98913,-13.3989 2.30313,0 1.56593,1.70494 -4.11021,9.5056 -7.64305,10.50381 -9.12278,13.71139 -20.54805,44.5415 -14.50488,39.14018 -19.84617,52.286 -23.33074,57.42081 -1.93963,2.85819 -3.48231,7.51728 -4.19235,12.66136 -0.80346,5.82089 -1.86733,8.75813 -3.73522,10.31251 -3.17873,2.64522 -5.90307,2.79197 -6.83321,0.36808 z m 25.07522,-1.29955 c 0.46522,-2.04922 5.74737,-16.85955 11.73812,-32.91184 26.94496,-72.19927 44.54206,-111.39662 55.05888,-122.64319 10.4237,-11.14698 7.24692,1.45084 -11.35293,45.02092 -6.12363,14.34459 -14.82874,33.98518 -19.34468,43.64573 -8.55174,18.29403 -31.98411,63.70852 -35.13319,68.09195 -1.71111,2.38182 -1.76492,2.3148 -0.9662,-1.20357 z M 1130.186,342.16471 c -0.4175,-19.01299 -1.5832,-49.37942 -2.5904,-67.48094 -2.8748,-51.66549 -3.0911,-58.37195 -1.8835,-58.37195 0.6187,0 1.1287,0.41916 1.1337,0.93147 0,0.51231 1.0938,9.03523 2.42,18.93984 3.7191,27.77894 8.5825,74.33491 9.9618,95.36363 0.6849,10.44083 1.5759,20.50067 1.9799,22.35521 1.1917,5.46901 3.2374,10.20266 4.4094,10.20266 1.9892,0 1.1389,-16.62505 -3.2809,-64.14614 -4.5317,-48.72372 -6.501,-78.59957 -5.0965,-77.31468 1.6503,1.50974 12.5984,82.47434 15.6017,115.37974 0.717,7.85537 2.5271,19.16345 4.0226,25.12905 1.4955,5.9656 2.2921,11.27496 1.7702,11.79858 -0.5218,0.52362 -6.9653,1.13893 -14.3188,1.36733 l -13.3701,0.4153 -0.7591,-34.5691 z m 38.8774,32.18414 c -4.0657,-2.03106 -4.4404,-2.73376 -5.7921,-10.8652 -0.7949,-4.78153 -2.1434,-16.67849 -2.9966,-26.43768 -1.6988,-19.42823 -1.0371,-22.66914 3.7447,-18.34161 3.297,2.9837 4.7488,7.87046 6.2026,20.8785 1.7028,15.23703 6.8643,25.44857 9.9493,19.68421 3.1487,-5.88348 2.9703,-13.2602 -0.5638,-23.30654 -4.6771,-13.29566 -4.9685,-26.294 -0.7422,-33.12271 3.8741,-6.26008 3.3559,-10.74946 -4.8018,-41.59866 -6.6868,-25.28642 -10.5329,-36.91058 -12.6444,-38.21556 -0.7004,-0.43293 -3.3426,1.23308 -5.8712,3.70228 -2.5287,2.46918 -4.9933,4.48942 -5.4768,4.48942 -2.0028,0 -0.7645,-9.74623 1.6241,-12.7829 1.718,-2.18403 3.0944,-7.20368 4.3879,-16.00243 2.256,-15.34539 3.5344,-19.74025 7.884,-27.10271 4.6564,-7.88156 5.9023,-11.00369 9.5052,-23.81796 6.1888,-22.01152 10.8216,-28.68957 41.4791,-59.791377 26.254,-26.63454 25.2999,-23.23573 8.9017,-31.70869 -5.202,-2.68797 -12.6782,-5.8891 -16.6136,-7.11363 -7.4135,-2.30679 -12.6831,-6.01757 -11.4284,-8.04779 1.1219,-1.81523 4.8804,-1.39291 11.7693,1.32245 l 6.3181,2.49037 1.332,-3.82101 c 1.7516,-5.02461 5.0879,-6.12756 18.5353,-6.12756 6.8394,0 12.7743,-0.68424 15.3807,-1.77324 3.7818,-1.58019 4.5386,-2.74343 6.9507,-10.68473 2.2936,-7.55127 2.5949,-10.74021 1.9741,-20.8924499 -0.4029,-6.58954 -1.0995,-13.65762 -1.548,-15.7068501 -0.7499,-3.42668 -0.1105,-3.03528 7.9636,4.8740901 12.2571,12.00711 12.5486,12.99097 8.548,28.8514799 -1.7943,7.11337 -2.9479,13.75246 -2.5638,14.75354 1.2131,3.16127 6.3583,2.02155 10.7643,-2.38442 8.4218,-8.42185 7.3987,-14.75775 -6.4911,-40.1998499 -4.1966,-7.6870501 -7.9652,-15.6510901 -8.3745,-17.6978751 -0.6429,-3.21383 -0.3789,-3.72143 1.9347,-3.72143 11.7652,0 27.6092,19.4856951 36.8369,45.304065 9.9903,27.95146 10.5937,55.13176 1.9801,89.197277 -5.2463,20.74806 -7.4427,25.71103 -11.3786,25.71103 -3.5644,0 -5.5056,-3.76391 -11.5355,-22.368 -7.8324,-24.164497 -8.0161,-24.384917 -17.1883,-20.626187 -2.3034,0.94392 -9.3184,2.30978 -15.5891,3.03523 -6.5433,0.757 -13.4737,2.37641 -16.2656,3.80075 -5.9573,3.039147 -15.7219,13.619517 -20.8826,22.627047 -13.2635,23.1502 -16.994,28.58087 -26.857,39.09743 -6.0644,6.46635 -11.1765,13.07682 -11.6247,15.03249 -0.4401,1.91988 -1.934,7.33929 -3.3199,12.04315 -3.7042,12.57312 -2.587,27.14777 3.3238,43.36084 2.4403,6.69388 4.437,13.74504 4.437,15.66924 0,3.60429 10.2481,41.00912 12.0374,43.93591 0.5517,0.90238 3.624,5.26537 6.8274,9.69551 13.3356,18.44263 36.5503,61.13661 37.8537,69.61661 0.5887,3.82965 0.2593,4.77161 -2.1126,6.041 -4.3807,2.34449 -11.2643,-0.33783 -16.8108,-6.55074 -5.7782,-6.47236 -9.0271,-8.42422 -12.5824,-7.55918 -2.5661,0.62435 -2.6467,0.44021 -1.3318,-3.04377 2.7034,-7.16186 -6.1361,-22.52704 -11.1428,-19.36891 -3.0173,1.90329 -4.1561,7.5083 -3.3786,16.62982 0.7571,8.884 0.3602,9.88257 -4.8378,12.16953 -2.646,1.16417 -3.3868,2.19057 -2.9064,4.02734 1.2611,4.82255 -5.6584,6.30514 -12.7929,2.74104 z m 30.7384,0.83163 c -2.465,-1.4332 -2.8999,-5.51249 -0.7304,-6.85331 0.8196,-0.50647 2.4473,0.34815 3.7667,1.97764 3.5123,4.33746 1.5255,7.52788 -3.0363,4.87567 z M 829.80295,197.56747 c 8.32248,-5.56899 15.10991,-7.799 15.10991,-4.96435 0,4.84397 -72.03118,77.65879 -100.131,101.22036 -108.65426,151.49971 26.00567,-51.90665 85.02109,-96.25601 z m 208.11855,176.76434 c -2.7768,-1.86659 -1.7266,-19.03854 5.7525,-94.05918 4.0159,-40.2824 9.6411,-69.5498 12.5002,-65.03681 4.0662,6.41847 -3.7212,113.53484 -10.6256,146.1564 -2.6656,12.59406 -4.2194,15.23021 -7.6271,12.93959 z m -53.77965,-7.74327 c -0.0698,-3.75691 0.7311,-14.37564 1.77972,-23.59717 6.20617,-54.57683 17.87213,-95.44298 35.09593,-122.94144 5.0092,-7.9975 5.9032,-8.89213 6.2722,-6.2766 0.5799,4.10925 -1.6323,11.32112 -6.6834,21.78882 -4.2595,8.82711 -15.2807,49.31759 -27.71998,101.84042 -3.39726,14.34459 -6.72605,28.3166 -7.39725,31.04891 l -1.22038,4.96782 -0.12684,-6.83076 z M 750.33284,-45.119993 c 32.85123,-35.498565 73.38493,-60.491567 129.97578,-80.142817 41.48867,-14.407 80.24292,-19.91168 153.86798,-21.85555 37.6991,-0.99535 57.6081,0.57979 66.9107,5.29374 3.9429,1.99809 9.9915,3.66975 15.7632,4.35664 34.8753,4.15036 76.0326,30.32738 106.6234,67.814816 6.5105,7.978353 15.3842,22.321955 16.9519,27.40137 0.8753,2.835908 0.8011,2.858661 -6.5937,2.022042 l -7.4789,-0.846145 -1.8377,4.398252 c -1.0107,2.419043 -2.8631,4.938753 -4.1162,5.599343 -1.2533,0.6606 -8.4263,1.86294 -15.9402,2.67187 -18.1536,1.95442 -18.0083,1.89939 -18.0083,6.819905 0,3.25721 -0.9221,4.81901 -4.4202,7.48713 -3.424,2.6117 -4.3336,4.1141701 -4.0363,6.6676801 l 0.3837,3.29629 -8.2302,-0.42819 c -8.158,-0.42444 -8.2597,-0.38958 -11.5869,3.97266002 -1.9347,2.53650998 -5.2878,5.02811998 -7.9152,5.88156998 -2.5072,0.81439 -7.9118,4.13884 -12.0103,7.3876499 -11.5295,9.13942 -34.3804,33.24653 -39.6543,41.83435 -5.2016,8.4703 -8.833,10.71281 -11.4817,7.09047 -0.9059,-1.23887 -1.6471,-3.50297 -1.6471,-5.03131 0,-2.71565 -2.9113,-6.6821 -4.9045,-6.6821 -1.6959,0 -3.4607,2.91036 -4.3853,7.23158 -0.5887,2.75191 -2.1881,4.92254 -4.8007,6.51562 -5.2214,3.18383 -7.8018,3.01719 -10.2108,-0.65944 -1.6623,-2.53691 -1.7589,-3.79913 -0.5669,-7.4111 1.8212,-5.51804 6.6615,-9.57927 18.5438,-15.55894 9.3549,-4.7078 17.5739,-11.34644 11.9132,-9.62252 -16.9286,5.15552 -16.6386,5.11741 -27.2552,3.58241 -23.1327,-3.34465 -45.5651,-14.14206 -48.8282,-23.50251 -1.4048,-4.0299699 0.067,-9.0113999 2.6637,-9.0113999 1.7158,0 7.4957,6.51363 10.4697,11.7985899 2.2151,3.93671 1.6979,0.59427 -1.0113,-6.5335999 -5.4815,-14.42199 -2.2412,-24.4030401 12.6965,-39.1083051 6.7707,-6.665367 9.0712,-9.62516 7.4811,-9.62516 -4.72,0 -42.3172,24.124845 -47.1383,30.246985 -4.17393,5.3004701 -8.57803,7.2632801 -16.16818,7.2058001 -8.68724,-0.0658 -17.61908,-2.57365 -19.4384,-5.4578701 -1.63534,-2.59257 -1.65042,-2.5801 19.17972,-15.857405 8.58258,-5.47062 19.38396,-13.155895 24.00326,-17.078391 17.7543,-15.076568 23.1783,-17.688464 36.7325,-17.688464 13.4272,0 30.6684,5.765993 36.4832,12.201091 1.2594,1.393661 7.6865,4.886912 14.2825,7.762786 15.4078,6.717818 34.749,16.528888 38.5721,19.566233 2.0835,1.65532 2.7735,3.16655 2.29,5.01548 -0.3807,1.45545 -0.2021,2.94912 0.3968,3.31925 1.4853,0.91789 7.451,-2.29479 10.4795,-5.64332 3.0604,-3.38402 10.824,-7.446745 14.2301,-7.446745 1.9957,0 2.5333,-0.80332 2.5333,-3.78517 0,-4.75478 4.4153,-9.094312 13.6616,-13.427026 5.3441,-2.504243 9.0977,-3.269102 17.2474,-3.514438 5.7291,-0.172483 10.7011,-0.598102 11.0488,-0.945837 2.5483,-2.548196 -30.6471,-37.626433 -38.7636,-40.962278 -2.6832,-1.102795 -7.7131,-4.68302 -11.1776,-7.956047 -11.0338,-10.424012 -25.2614,-17.260172 -49.6791,-23.870162 -17.337,-4.69318 -40.4799,-7.20177 -77.7107,-8.42343 -26.913,-0.88312 -34.55924,-0.66794 -58.99282,1.66018 -7.18811,0.6849 -10.79346,0.27311 -20.8183,-2.37784 -6.66853,-1.7634 -12.9887,-3.20619 -14.04483,-3.20619 -1.05613,0 -3.98327,1.64319 -6.50475,3.65155 -5.80402,4.62288 -26.41983,14.80757 -39.28827,19.40933 -5.42555,1.94018 -12.41155,5.33133 -15.52446,7.53588 -17.79025,12.599036 -34.4138,20.241389 -44.16046,20.301897 -6.03048,0.03738 -11.57499,3.233669 -16.25639,9.371306 -3.25647,4.269448 -3.35164,4.704493 -1.34951,6.168499 1.18474,0.866302 7.28016,2.570763 13.5454,3.787681 l 11.39132,2.212595 -6.7703,6.032182 c -3.72367,3.3177 -10.61784,7.976999 -15.32038,10.353992 -7.3129,3.696459 -9.79573,4.321809 -17.15884,4.321809 l -8.60879,0 10.48582,-8.641843 c 16.09799,-13.267112 15.35989,-16.608844 -1.62822,-7.371706 -32.65603,17.756424 -74.16902,58.6123211 -94.48665,92.991031 -4.73051,8.00432 -5.49084,10.25232 -5.49084,16.2343 0,8.13371 -1.82768,11.35603 -15.3375,27.04095 -11.72258,13.60991 -18.58933,23.499447 -25.13485,36.199397 -2.98273,5.78724 -7.6986,13.08429 -10.47971,16.21567 -5.35306,6.02726 -7.3853,10.16871 -8.59772,17.52105 -0.45462,2.7569 -2.66298,6.69559 -5.6686,10.11015 -2.70811,3.07657 -5.97011,8.0302 -7.2489,11.00808 C 378.67964,406.27925 677.59629,35.863353 750.33284,-45.119993 z M 1084.4762,8.5763231 c 1.6339,-0.84378 3.7566,-2.72932 4.717,-4.19007 1.5633,-2.37797 1.4473,-2.99304 -1.108,-5.87713 -6.21,-7.00924 -21.4832,-4.4746 -21.4832,3.56523 0,3.01655 0.8275,4.13927 4.3468,5.89737 5.0959,2.5456499 9.3964,2.7378699 13.5274,0.6046 z M 835.88983,315.78503 c -1.03336,-3.95157 3.009,-11.11372 24.61634,-43.61468 22.24536,-33.46065 31.00996,-44.40811 34.48563,-43.07437 3.9116,1.50101 2.08469,5.76025 -7.68327,17.91271 -11.85693,14.75136 -23.49447,32.51807 -32.88347,50.20227 -9.63343,18.14455 -16.77585,25.30194 -18.53523,18.57407 z m -43.13914,-13.37257 c 0,-7.18754 14.68447,-22.00979 21.06771,-21.26535 9.46322,1.10364 -5.09981,21.07738 -16.74563,22.96724 -3.6874,0.59839 -4.32208,0.34847 -4.32208,-1.70189 z m -14.0755,-7.4434 c -1.8432,-1.84319 -0.60494,-8.65076 2.14033,-11.76692 4.1983,-4.76547 13.18163,-11.00228 15.84739,-11.00228 5.69586,0 0.46048,10.97496 -9.33111,19.56081 -4.50319,3.94868 -6.99339,4.87161 -8.65661,3.20839 z m -75.79597,-18.76768 c -1.02464,-1.6579 6.53517,-7.82578 29.90231,-24.39658 10.39229,-7.36968 29.73603,-22.51284 42.98609,-33.65147 24.64732,-20.71965 36.8735,-29.82766 43.97332,-32.75832 3.88868,-1.60517 7.7929,-1.22342 7.77651,0.7604 -0.0389,4.71265 -39.16871,39.39904 -68.86434,61.04443 -10.89831,7.94386 -21.87504,16.54356 -24.39275,19.11045 -2.51769,2.56688 -7.1017,5.78357 -10.18667,7.14819 -6.58995,2.91505 -20.01435,4.65237 -21.19447,2.7429 z m 113.46865,-8.15884 c 0,-6.90613 37.25566,-43.8836 58.85575,-58.41628 4.78365,-3.21847 9.45185,-4.27776 9.45185,-2.14476 0,2.78597 -12.23398,17.03027 -26.83755,31.24755 -30.28153,29.48055 -41.47005,37.38926 -41.47005,29.31349 z m -132.06136,-0.39652 c -1.46091,-1.46091 -0.88651,-5.98751 1.12403,-8.85796 2.66442,-3.80399 11.89488,-10.38398 30.40498,-21.67437 8.57483,-5.23029 16.67859,-10.73685 18.00837,-12.23681 l 2.41779,-2.7272 -3.72587,0.88576 c -5.6485,1.34284 -27.20144,12.16394 -39.53883,19.85129 -12.27246,7.64689 -20.72072,9.94944 -24.10138,6.56876 -4.50526,-4.50526 3.62826,-10.49942 33.21228,-24.47653 20.43255,-9.65344 24.5476,-12.01158 26.13429,-14.97635 0.67705,-1.26506 3.3789,-2.87849 6.00413,-3.58539 4.81297,-1.29599 10.53807,-5.703 24.57359,-18.91599 6.80225,-6.40363 10.35363,-8.63438 10.35363,-6.50352 0,1.57401 -3.22738,6.49063 -11.98501,18.25809 -9.66666,12.98889 -13.49255,19.31548 -12.36347,20.44456 1.35417,1.35417 6.99789,-3.56725 13.64636,-11.89989 9.40861,-11.79195 18.28827,-18.4665 31.45497,-23.64367 3.55867,-1.39928 6.77384,-2.05306 7.14479,-1.45285 1.55895,2.52244 -14.92128,19.37925 -38.45426,39.33297 -19.22402,16.30013 -45.50819,33.86651 -64.29103,42.96734 -7.57474,3.67018 -8.69545,3.96567 -10.01936,2.64176 z m 115.91592,-8.21035 c 0,-3.92112 14.33845,-20.44705 28.565,-32.92289 11.51881,-10.10131 14.40699,-11.73496 17.69788,-10.0105 4.6015,2.41123 1.3186,6.64392 -11.62043,14.98235 -5.05674,3.25876 -8.01345,6.34842 -10.79958,11.28516 -4.8984,8.67949 -16.38352,18.25246 -21.89829,18.25246 -1.06952,0 -1.94458,-0.71396 -1.94458,-1.58658 z M 626.94952,231.47866 c -39.27553,-10.62176 -15.82286,-18.35063 10.55663,-3.93262 0,0.65194 0.0277,1.60451 0.0616,2.11681 0.0825,1.24903 -5.99993,2.28918 -10.61818,1.81581 l -5e-5,0 z m 28.46399,-0.35659 c -2.10479,-0.61116 -4.89434,-2.29071 -6.199,-3.73233 -2.33939,-2.58501 -2.33575,-2.6506 0.26436,-4.75604 1.45006,-1.17419 5.91625,-2.90678 9.92486,-3.85021 l 7.28839,-1.71532 -9.2623,-0.99114 c -5.15939,-0.5521 -10.05152,-1.78036 -11.04396,-2.77279 -1.54757,-1.54758 -1.2281,-2.1186 2.43154,-4.34616 5.40624,-3.29068 35.34486,-12.80867 51.38492,-16.33613 13.5077,-2.97055 20.2839,-5.56499 26.2345,-10.04457 2.12117,-1.59679 6.2569,-4.71963 9.19053,-6.93963 4.88806,-3.699 12.41292,-5.55292 12.41292,-3.0582 0,1.93657 -20.80844,20.44559 -28.78354,25.60285 -1.82787,1.18203 -8.42904,2.971 -14.66926,3.97548 -14.89773,2.39807 -28.58067,7.3731 -28.58067,10.39175 0,0.49582 2.23552,1.77963 4.96782,2.85291 2.73231,1.07328 4.96783,2.53144 4.96783,3.24034 0,1.70068 -7.20999,7.39493 -13.88196,10.96355 -5.55855,2.9731 -10.17876,3.39375 -16.64698,1.51564 z m -26.60909,-12.25742 c -8.52397,-2.55829 -13.61395,-7.05424 -11.62666,-10.26975 1.05633,-1.70918 11.71854,-0.39749 16.38524,2.01576 3.80732,1.96884 5.958,5.48017 4.29435,7.0112 -1.76575,1.62502 -5.89203,2.19147 -9.05293,1.24279 z m 4.97586,-18.48803 c 0,-1.17462 28.69175,-10.43311 29.5798,-9.54506 1.13209,1.13208 -5.46153,5.58959 -11.92851,8.06409 -6.55014,2.5063 -17.65129,3.43771 -17.65129,1.48097 z m 0.19606,-14.25649 c -2.54552,-3.06715 0.4232,-3.88523 15.3284,-4.22396 l 13.66152,-0.31048 -5.58881,2.69899 c -7.19186,3.47313 -21.13437,4.56671 -23.40111,1.83545 z m 63.98539,-2.98404 c -0.3982,-0.64428 1.81878,-3.29691 4.9266,-5.89472 6.59146,-5.50979 5.72118,-6.83547 -3.61433,-5.50548 -3.57544,0.50937 -9.22391,0.96693 -12.55215,1.0168 -5.37596,0.0805 -5.86983,-0.12808 -4.42487,-1.86916 2.11016,-2.54258 11.83145,-7.42574 17.01371,-8.54625 2.97985,-0.6443 5.53797,-0.15786 9.6576,1.83641 8.96063,4.33777 10.49292,3.59354 34.03577,-16.53109 7.89298,-6.74699 16.43474,-13.47765 18.98169,-14.957 3.32161,-1.92932 5.0772,-4.08388 6.20978,-7.62101 1.59281,-4.97444 3.28007,-6.30042 12.1356,-9.53705 2.39077,-0.87381 8.04948,-5.05683 12.57491,-9.29561 12.38932,-11.604557 27.78867,-18.404327 27.78867,-12.270437 0,1.60566 -2.16694,3.84266 -6.20978,6.410577 -9.92822,6.30617 -12.99595,9.10458 -14.85294,13.54897 -0.95847,2.29394 -4.17474,6.60287 -7.14727,9.5754 -8.62734,8.62733 -66.0444,51.11803 -75.09751,55.57486 -8.40942,4.13993 -18.12287,6.17248 -19.42548,4.06479 z m -57.40751,-9.14272 c -1.59548,-2.58154 5.11253,-7.56582 19.89602,-14.78343 26.84415,-13.10591 46.94797,-19.66169 54.14862,-17.65768 l 4.25543,1.18432 -6.83076,2.88978 c -3.75692,1.5894 -16.28741,7.56107 -27.84555,13.2704 -19.49014,9.62749 -36.43224,16.4305 -40.91822,16.4305 -1.03464,0 -2.25213,-0.60025 -2.70554,-1.33389 z m 12.68338,-19.36538 c -3.1395,-3.1395 2.23675,-6.88053 8.23907,-5.73312 4.55857,0.87143 4.21146,2.60308 -0.95444,4.76153 -4.80825,2.00902 -6.07787,2.17836 -7.28463,0.97159 z m 83.62506,-24.07046 c 0,-0.71569 1.47881,-2.67177 3.28624,-4.34685 l 3.28625,-3.04558 -9.42273,0 c -5.1825,0 -9.78066,-0.57914 -10.21811,-1.28697 -1.30886,-2.11776 8.36782,-10.74611 13.71733,-12.23126 7.03709,-1.95364 9.75933,-1.72687 13.37067,1.1138 6.29879,4.95463 5.34978,15.64128 -1.71334,19.29376 -4.03056,2.08427 -12.30631,2.42261 -12.30631,0.5031 z m 23.0806,-19.64305 c -1.40644,-2.27568 1.33735,-5.83059 9.49718,-12.304707 19.49274,-15.46582 57.54917,-39.08729 83.54514,-51.85611 33.81483,-16.60934 27.52433,-10.57034 -27.24297,26.15381 -21.90247,14.68667 -43.00464,29.273507 -46.89373,32.415197 -5.33276,4.30793 -8.42241,5.86448 -12.5682,6.33176 -3.30014,0.37198 -5.83297,0.0763 -6.33742,-0.73995 z m -62.40253,-4.58994 c -0.45114,-1.17565 0.65154,-3.39301 2.80526,-5.64099 3.5091,-3.662717 51.37694,-36.796367 74.59886,-51.636617 22.47025,-14.35986 66.68676,-34.84956 97.14172,-45.0149499 29.84802,-9.96278 28.3679,-7.80826 -4.19752,6.1100599 -29.34655,12.5426 -28.11636,11.84108 -73.83036,42.10195 -36.61811,24.23972 -57.44756,36.1086 -67.75266,38.60626 -3.10141,0.75169 -8.70065,4.24645 -14.90348,9.301947 -10.32401,8.41443 -12.61072,9.43265 -13.86182,6.17234 z m -20.72866,-3.97452 c -1.10697,-1.7911 2.66754,-8.656007 7.31404,-13.302517 16.24217,-16.24217 65.76789,-45.66558 127.28334,-75.61949 40.38309,-19.6638699 83.78634,-36.623095 86.57963,-33.82979 0.38435,0.38436 -3.10651,2.47955 -7.75749,4.65601 -7.32408,3.42735 -8.09721,4.09002 -5.77427,4.94934 4.34637,1.6078101 3.09697,2.4549301 -3.21723,2.1813401 -4.87827,-0.21137 -9.23107,1.19662 -25.14962,8.13512002 C 832.00343,10.018983 791.47949,29.868193 773.50037,39.973853 c -7.51383,4.22336 -22.32416,13.95525 -32.91184,21.62643 -32.6143,23.63027 -59.56782,41.693507 -62.21404,41.693507 -0.53853,0 -1.24162,-0.42469 -1.56242,-0.94377 z m 69.48578,-6.020737 c -0.50339,-1.31183 0.83553,-3.57016 3.90349,-6.58399 8.02133,-7.87979 72.71113,-46.20333 106.9954,-63.38625 17.58386,-8.81283 21.75238,-10.57958 20.61334,-8.73656 -1.14794,1.85739 -14.31554,10.5335 -55.87341,36.81485 -48.11672,30.4292 -70.47806,43.88864 -72.916,43.88864 -1.07613,0 -2.3014,-0.89852 -2.72282,-1.99669 z m 382.71245,-10.44579 c -3.5063,-2.16572 -2.7651,-9.39414 1.6722,-16.30906 7.0319,-10.9584 24.3209,-24.69213 38.3512,-30.46468 7.6147,-3.13296 10.6581,-3.53307 11.8766,-1.56139 1.3086,2.11738 -2.6519,5.60745 -21.8583,19.2623 -24.512,17.42685 -28.9005,22.55001 -12.0142,14.02586 12.7185,-6.42023 22.8849,-9.76626 29.8161,-9.81326 3.5706,-0.0242 7.8892,-0.84271 9.5969,-1.81892 4.4401,-2.53823 10.3481,-2.26556 16.8193,0.77629 8.8806,4.17436 10.0477,9.2676 2.9632,12.93117 -4.5424,2.34894 -8.1792,2.29109 -17.4164,-0.27706 -9.3519,-2.6001 -13.5434,-1.67211 -32.2996,7.15112 -13.5774,6.38699 -23.4835,8.58292 -27.507,6.09763 z m -92.8796,-29.70076 c -2.4145,-1.2938 -8.3701,-6.03733 -13.2346,-10.54118 -9.2876,-8.59879 -17.1205,-13.01903 -23.35972,-13.18209 -7.61145,-0.19892 -11.81376,-2.74164 -15.30737,-9.26223 -2.36387,-4.41198 -4.68788,-6.84327 -8.05813,-8.43011 -3.61964,-1.70424 -5.44675,-3.75607 -7.7501,-8.7033199 -1.65764,-3.56035 -3.01935,-7.46576 -3.02602,-8.67868 -0.0112,-2.08658 0.20517,-2.09339 4.02423,-0.12642 6.11006,3.14696002 11.72572,7.54738 22.7506,17.8273499 7.28507,6.7929 14.74381,12.01901 27.32301,19.14448 22.8603,12.94923 29.3425,17.68706 28.8567,21.09179 -0.5072,3.55502 -6.4134,3.97092 -12.2186,0.86041 z m -321.57898,-8.10264 c -1.1806,-1.42255 -1.14672,-2.31631 0.15842,-4.17878 2.87963,-4.10932 16.20346,-14.60694 27.70472,-21.82811 11.39601,-7.15508 17.51232,-8.73011 20.39824,-5.25279 2.14172,2.58062 0.54939,5.08344 -4.71059,7.40415 -2.60818,1.15072 -10.54994,6.37147 -17.64834,11.60164 -20.13295,14.83419 -22.73814,16.06665 -25.90245,12.25389 z m 507.91578,-22.72616 c -11.878,-1.28757 -14.0234,-1.93899 -18.0608,-5.48382 -5.0694,-4.45102 -5.6495,-9.79272 -1.9326,-17.7957599 4.3927,-9.45813 10.6597,-13.7630901 17.2741,-11.86607 13.4359,3.85333 17.0633,8.85618002 16.1073,22.2151699 -0.3488,4.87572 -1.2863,9.65063 -2.0832,10.61093 -1.5623,1.88243 -6.3241,2.85945 -11.3048,2.31955 z M 725.68505,15.103073 c 0,-4.54072 36.4605,-23.3934699 75.15108,-38.858625 26.2901,-10.50851 40.85463,-14.681945 61.66537,-17.670092 18.04582,-2.591144 50.71896,-3.949211 50.71896,-2.108134 0,2.115511 -6.86643,3.736761 -24.83913,5.864828 -60.12988,7.119728 -54.30041,5.217558 -156.17601,50.960713 -3.58615,1.61022 -6.52027,2.42531 -6.52027,1.81131 z m 48.4363,-3.12016 c 0,-0.35642 3.43993,-2.8713899 7.64429,-5.5887999 5.53524,-3.5776 8.96177,-4.94074 12.41956,-4.94074 8.94577,0 5.47819,2.67523 -10.65622,8.22122 -9.44445,3.2464099 -9.40763,3.2373699 -9.40763,2.3083199 z m 55.69373,-32.79165 c 5.80116,-5.067215 34.29724,-11.882405 38.26033,-9.150435 1.41604,0.97615 2.10712,3.32726 1.82373,6.20455 -0.25785,2.617965 -8.98156,4.238495 -26.22823,4.872195 l -16.76642,0.61604 2.91059,-2.54235 z m 37.00728,-42.124425 c -0.94365,-5.901279 -3.22926,-6.789229 -12.88242,-5.004748 -3.73247,0.689981 -7.06342,0.977419 -7.40209,0.638738 -0.80284,-0.802838 9.09454,-10.331947 20.2727,-19.518374 16.80367,-13.809584 20.11151,-13.178883 14.87726,2.836666 -3.62081,11.07887 -10.4472,24.774519 -12.70088,25.481565 -0.77951,0.244553 -1.7267,-1.695656 -2.16457,-4.433847 z"
     id="path4026"
     sodipodi:nodetypes="csscccsssccssssssssssccsssssccssssssssssssccccssssssssssssssssssscccssssssssssssssssssssssssssssssssssssccssccscccsssccsssssccccsssssscccsssscccsssssssssssssssssssssssssssssssssssssssssssssssssscccscccsssssssscccssssccssssccssccsssccsssssssccsssccsscccssssssssssssssccssssscccscccsscccssssssssssssccsssccsscccccccssssssssssssssssccscccssccsscccccssssccsssssccsssssssccssssssssssccsssssccsssssssssssccssssssssssccsssssccsssssccsssssccsssccssccccsssssc"
     inkscape:export-filename="/Users/filipe/Desktop/path3995.png"
     inkscape:export-xdpi="300"
     inkscape:export-ydpi="300" />
</svg>
